<svg width="704" height="896" viewBox="0 0 704 896" fill="none" xmlns="http://www.w3.org/2000/svg">
<path d="M694.6 224.6L479.4 9.4C473.4 3.4 465.3 0 456.8 0H32C14.3 0 0 14.3 0 32V864C0 881.7 14.3 896 32 896H672C689.7 896 704 881.7 704 864V247.3C704 238.8 700.6 230.6 694.6 224.6ZM630.2 262H442V73.8L630.2 262ZM632 824H72V72H374V288C374 299.139 378.425 309.822 386.302 317.698C394.178 325.575 404.861 330 416 330H632V824ZM384 408C384 403.6 380.4 400 376 400H328C323.6 400 320 403.6 320 408V516H212C207.6 516 204 519.6 204 524V572C204 576.4 207.6 580 212 580H320V688C320 692.4 323.6 696 328 696H376C380.4 696 384 692.4 384 688V580H492C496.4 580 500 576.4 500 572V524C500 519.6 496.4 516 492 516H384V408Z" fill="black"/>
</svg>
