<svg width="22" height="22" viewBox="0 0 22 22" fill="none" xmlns="http://www.w3.org/2000/svg">
<path d="M11 5C10.4477 5 10 5.44772 10 6C10 6.55228 10.4477 7 11 7V5ZM11.01 7C11.5623 7 12.01 6.55228 12.01 6C12.01 5.44772 11.5623 5 11.01 5V7ZM9 10V9C8.66818 9 8.35796 9.1646 8.17193 9.43937C7.9859 9.71414 7.94829 10.0633 8.07152 10.3714L9 10ZM11 10H12C12 9.44772 11.5523 9 11 9V10ZM11 15L10.0715 15.3714C10.2496 15.8165 10.7184 16.0726 11.1891 15.982C11.6598 15.8913 12 15.4794 12 15H11ZM9 14C8.44772 14 8 14.4477 8 15C8 15.5523 8.44772 16 9 16V14ZM13 16C13.5523 16 14 15.5523 14 15C14 14.4477 13.5523 14 13 14V16ZM20 11C20 15.9706 15.9706 20 11 20V22C17.0751 22 22 17.0751 22 11H20ZM11 20C6.02944 20 2 15.9706 2 11H0C0 17.0751 4.92487 22 11 22V20ZM2 11C2 6.02944 6.02944 2 11 2V0C4.92487 0 0 4.92487 0 11H2ZM11 2C15.9706 2 20 6.02944 20 11H22C22 4.92487 17.0751 0 11 0V2ZM11 7H11.01V5H11V7ZM9 11H11V9H9V11ZM10 10V15H12V10H10ZM11.9285 14.6286L9.92848 9.62861L8.07152 10.3714L10.0715 15.3714L11.9285 14.6286ZM9 16H13V14H9V16Z" fill="black"/>
</svg>
