<svg width="64" height="64" viewBox="0 0 64 64" fill="none" xmlns="http://www.w3.org/2000/svg">
<path d="M54.2499 45.75H49.8562C49.5562 45.75 49.2749 45.8813 49.0874 46.1125C48.6499 46.6438 48.1812 47.1563 47.6874 47.6438C45.668 49.6652 43.276 51.2761 40.6437 52.3875C37.9165 53.5394 34.9853 54.1303 32.0249 54.125C29.0312 54.125 26.1312 53.5375 23.4062 52.3875C20.7738 51.2761 18.3818 49.6652 16.3624 47.6438C14.3394 45.6292 12.7263 43.2413 11.6124 40.6125C10.4562 37.8875 9.87492 34.9938 9.87492 32C9.87492 29.0063 10.4624 26.1125 11.6124 23.3875C12.7249 20.7563 14.3249 18.3875 16.3624 16.3563C18.3999 14.325 20.7687 12.725 23.4062 11.6125C26.1312 10.4625 29.0312 9.875 32.0249 9.875C35.0187 9.875 37.9187 10.4563 40.6437 11.6125C43.2812 12.725 45.6499 14.325 47.6874 16.3563C48.1812 16.85 48.6437 17.3625 49.0874 17.8875C49.2749 18.1188 49.5624 18.25 49.8562 18.25H54.2499C54.6436 18.25 54.8874 17.8125 54.6686 17.4813C49.8749 10.0313 41.4874 5.1 31.9562 5.125C16.9812 5.1625 4.97493 17.3188 5.12493 32.275C5.27493 46.9938 17.2624 58.875 32.0249 58.875C41.5312 58.875 49.8811 53.95 54.6686 46.5188C54.8811 46.1875 54.6436 45.75 54.2499 45.75ZM59.8061 31.6063L50.9374 24.6063C50.6061 24.3438 50.1249 24.5813 50.1249 25V29.75H30.4999C30.2249 29.75 29.9999 29.975 29.9999 30.25V33.75C29.9999 34.025 30.2249 34.25 30.4999 34.25H50.1249V39C50.1249 39.4188 50.6124 39.6563 50.9374 39.3938L59.8061 32.3938C59.8659 32.347 59.9142 32.2872 59.9475 32.219C59.9807 32.1508 59.998 32.0759 59.998 32C59.998 31.9241 59.9807 31.8492 59.9475 31.781C59.9142 31.7128 59.8659 31.653 59.8061 31.6063Z" fill="black"/>
</svg>
