<svg width="51" height="51" viewBox="0 0 51 51" fill="none" xmlns="http://www.w3.org/2000/svg">
<path d="M49.8359 24.6484L41.8609 18.3547C41.7942 18.3022 41.714 18.2696 41.6296 18.2605C41.5452 18.2515 41.4599 18.2664 41.3836 18.3036C41.3073 18.3408 41.243 18.3987 41.1981 18.4708C41.1532 18.5428 41.1294 18.626 41.1296 18.7109V22.7547H27.2546V8.87966H31.3046C31.6796 8.87966 31.8921 8.44216 31.6609 8.14841L25.3609 0.17341C25.3192 0.119444 25.2657 0.0757524 25.2045 0.0456915C25.1433 0.0156306 25.076 0 25.0078 0C24.9396 0 24.8723 0.0156306 24.8111 0.0456915C24.7499 0.0757524 24.6963 0.119444 24.6546 0.17341L18.3547 8.14841C18.3022 8.21514 18.2695 8.2953 18.2605 8.37972C18.2515 8.46413 18.2664 8.54938 18.3036 8.6257C18.3408 8.70202 18.3987 8.76632 18.4707 8.81124C18.5428 8.85615 18.626 8.87987 18.7109 8.87966H22.7546V22.7547H8.87965V18.7047C8.87965 18.3297 8.44216 18.1172 8.14841 18.3484L0.173409 24.6484C0.119443 24.6901 0.0757524 24.7436 0.0456915 24.8048C0.0156306 24.8661 0 24.9334 0 25.0016C0 25.0697 0.0156306 25.137 0.0456915 25.1983C0.0757524 25.2595 0.119443 25.313 0.173409 25.3547L8.14216 31.6547C8.4359 31.8859 8.8734 31.6797 8.8734 31.2984V27.2547H22.7484V41.1297H18.6984C18.3234 41.1297 18.1109 41.5672 18.3421 41.8609L24.6421 49.8297C24.8234 50.0609 25.1734 50.0609 25.3484 49.8297L31.6484 41.8609C31.8796 41.5672 31.6734 41.1297 31.2921 41.1297H27.2546V27.2547H41.1296V31.3047C41.1296 31.6797 41.5671 31.8922 41.8609 31.6609L49.8296 25.3609C49.8834 25.3187 49.927 25.2648 49.9572 25.2034C49.9874 25.142 50.0034 25.0746 50.004 25.0062C50.0046 24.9378 49.9898 24.8701 49.9607 24.8082C49.9316 24.7462 49.8889 24.6916 49.8359 24.6484V24.6484Z" fill="black"/>
</svg>
