<svg width="64" height="64" viewBox="0 0 64 64" fill="none" xmlns="http://www.w3.org/2000/svg">
<path d="M33.7778 7.11111C33.3063 7.11111 32.8541 7.29842 32.5207 7.63181C32.1873 7.96521 32 8.4174 32 8.88889C32 9.36039 32.1873 9.81257 32.5207 10.146C32.8541 10.4794 33.3063 10.6667 33.7778 10.6667H50.8267L34.3822 27.1111C34.1961 27.2705 34.045 27.4666 33.9383 27.6872C33.8316 27.9077 33.7716 28.148 33.7621 28.3928C33.7527 28.6376 33.7939 28.8818 33.8833 29.1099C33.9727 29.338 34.1083 29.5452 34.2815 29.7185C34.4548 29.8917 34.662 30.0273 34.8901 30.1167C35.1182 30.2061 35.3624 30.2473 35.6072 30.2379C35.852 30.2284 36.0923 30.1684 36.3128 30.0617C36.5334 29.955 36.7295 29.8039 36.8889 29.6178L53.3333 13.1733V30.2222C53.3333 30.6937 53.5206 31.1459 53.854 31.4793C54.1874 31.8127 54.6396 32 55.1111 32C55.5826 32 56.0348 31.8127 56.3682 31.4793C56.7016 31.1459 56.8889 30.6937 56.8889 30.2222V7.11111H33.7778Z" fill="black"/>
<path d="M7.11108 33.7778C7.11108 33.3063 7.29839 32.8541 7.63178 32.5207C7.96518 32.1873 8.41737 32 8.88886 32C9.36036 32 9.81254 32.1873 10.1459 32.5207C10.4793 32.8541 10.6666 33.3063 10.6666 33.7778V50.8267L27.1111 34.3822C27.2705 34.1961 27.4666 34.045 27.6871 33.9383C27.9077 33.8316 28.1479 33.7716 28.3928 33.7621C28.6376 33.7527 28.8817 33.7939 29.1099 33.8833C29.338 33.9727 29.5452 34.1083 29.7185 34.2815C29.8917 34.4548 30.0273 34.662 30.1167 34.8901C30.206 35.1182 30.2473 35.3624 30.2378 35.6072C30.2284 35.852 30.1684 36.0923 30.0617 36.3128C29.955 36.5334 29.8039 36.7295 29.6178 36.8889L13.1733 53.3333H30.2222C30.6937 53.3333 31.1459 53.5206 31.4793 53.854C31.8127 54.1874 32 54.6396 32 55.1111C32 55.5826 31.8127 56.0348 31.4793 56.3682C31.1459 56.7016 30.6937 56.8889 30.2222 56.8889H7.11108V33.7778Z" fill="black"/>
</svg>
