<svg width="800" height="800" viewBox="0 0 800 800" fill="none" xmlns="http://www.w3.org/2000/svg">
<path d="M792 704H8C3.6 704 0 707.6 0 712V792C0 796.4 3.6 800 8 800H792C796.4 800 800 796.4 800 792V712C800 707.6 796.4 704 792 704ZM141.7 624H226.7C230.9 624 234.7 621.3 236 617.2L289.7 451.2H508.9L562.1 617.2C563.4 621.2 567.1 624 571.4 624H660.5C661.6 624 662.7 623.8 663.7 623.5C664.911 623.084 666.028 622.433 666.987 621.583C667.945 620.734 668.726 619.703 669.283 618.55C669.841 617.397 670.165 616.145 670.237 614.867C670.308 613.588 670.126 612.308 669.7 611.1L461.6 6.6C460.925 4.69118 459.682 3.03509 458.037 1.85497C456.392 0.674844 454.424 0.0274296 452.4 0H350.1C345.9 0 342.2 2.6 340.9 6.6L132.5 611.1C132.1 612.1 132 613.2 132 614.3C131.9 619.6 136.3 624 141.7 624V624ZM397.6 107.9H401.7L485.5 371.7H312.9L397.6 107.9V107.9Z" fill="black"/>
</svg>
